
<?xml version="1.0" encoding="UTF-8"?>
<!DOCTYPE svg PUBLIC "-//W3C//DTD SVG 1.1//EN" "http://www.w3.org/Graphics/SVG/1.1/DTD/svg11.dtd">
<!-- Creator: CorelDRAW -->
<svg xmlns="http://www.w3.org/2000/svg" xml:space="preserve" width="4.699mm" height="4.6543mm" version="1.1" style="shape-rendering:geometricPrecision; text-rendering:geometricPrecision; image-rendering:optimizeQuality; fill-rule:evenodd; clip-rule:evenodd"
viewBox="0 0 25.19 24.95"
 xmlns:xlink="http://www.w3.org/1999/xlink"
 xmlns:xodm="http://www.corel.com/coreldraw/odm/2003">
 <defs>
  <style type="text/css">
   <![CDATA[
    .fil0 {fill:#576F35;fill-rule:nonzero}
   ]]>
  </style>
 </defs>
 <g id="Слой_x0020_1">
  <metadata id="CorelCorpID_0Corel-Layer"/>
  <g id="_2455106169088">
   <path class="fil0" d="M23.2 0.18l-3.2 0c-0.99,0 -1.79,0.78 -1.79,1.75l0 3.14c0,0.97 0.8,1.75 1.79,1.75l3.2 0c0.99,0 1.79,-0.78 1.79,-1.75l0 -3.14c0,-0.97 -0.8,-1.75 -1.79,-1.75z"/>
   <path class="fil0" d="M5.37 18.31l-3.45 0c-1.06,0 -1.93,0.78 -1.93,1.75l0 3.14c0,0.97 0.86,1.75 1.93,1.75l3.45 0c1.06,0 1.93,-0.78 1.93,-1.75l0 -3.14c0,-0.97 -0.86,-1.75 -1.93,-1.75z"/>
   <path class="fil0" d="M4.99 9.17l-3.2 0c-0.99,0 -1.79,0.78 -1.79,1.75l0 3.13c0,0.97 0.8,1.75 1.79,1.75l3.2 0c0.99,0 1.79,-0.78 1.79,-1.75l0 -3.13c0,-0.97 -0.8,-1.75 -1.79,-1.75z"/>
   <path class="fil0" d="M14.17 18.26l-3.2 0c-0.99,0 -1.79,0.78 -1.79,1.75l0 3.14c0,0.97 0.8,1.75 1.79,1.75l3.2 0c0.99,0 1.79,-0.78 1.79,-1.75l0 -3.14c0,-0.97 -0.8,-1.75 -1.79,-1.75z"/>
   <path class="fil0" d="M4.99 0l-3.2 0c-0.99,0 -1.79,0.78 -1.79,1.75l0 3.14c0,0.97 0.8,1.75 1.79,1.75l3.2 0c0.99,0 1.79,-0.78 1.79,-1.75l0 -3.14c0,-0.97 -0.8,-1.75 -1.79,-1.75z"/>
   <path class="fil0" d="M14.42 9.26l-3.2 0c-0.99,0 -1.79,0.78 -1.79,1.75l0 3.13c0,0.97 0.8,1.75 1.79,1.75l3.2 0c0.99,0 1.79,-0.78 1.79,-1.75l0 -3.13c0,-0.97 -0.8,-1.75 -1.79,-1.75z"/>
   <path class="fil0" d="M23.4 18.26l-3.2 0c-0.99,0 -1.79,0.78 -1.79,1.75l0 3.14c0,0.97 0.8,1.75 1.79,1.75l3.2 0c0.99,0 1.79,-0.78 1.79,-1.75l0 -3.14c0,-0.97 -0.8,-1.75 -1.79,-1.75z"/>
   <path class="fil0" d="M14.03 0.11l-3.2 0c-0.99,0 -1.79,0.78 -1.79,1.75l0 3.14c0,0.97 0.8,1.75 1.79,1.75l3.2 0c0.99,0 1.79,-0.78 1.79,-1.75l0 -3.13c0,-0.97 -0.8,-1.75 -1.79,-1.75z"/>
   <path class="fil0" d="M23.17 9.45l-3.2 0c-0.99,0 -1.79,0.78 -1.79,1.75l0 3.13c0,0.97 0.8,1.75 1.79,1.75l3.2 0c0.99,0 1.79,-0.78 1.79,-1.75l0 -3.13c0,-0.97 -0.8,-1.75 -1.79,-1.75z"/>
  </g>
 </g>
</svg>

