<svg xmlns="http://www.w3.org/2000/svg" xml:space="preserve" width="17.76" height="17.591" style="shape-rendering:geometricPrecision;text-rendering:geometricPrecision;image-rendering:optimizeQuality;fill-rule:evenodd;clip-rule:evenodd" viewBox="0 0 25.19 24.95">
  <defs>
    <style>
      .fil0{fill:#576f35;fill-rule:nonzero}
    </style>
  </defs>
  <g id="Слой_x0020_1">
    <g id="_2455106169088">
      <path class="fil0" d="M23.2.18H20c-.99 0-1.79.78-1.79 1.75v3.14c0 .97.8 1.75 1.79 1.75h3.2c.99 0 1.79-.78 1.79-1.75V1.93c0-.97-.8-1.75-1.79-1.75zM5.37 18.31H1.92c-1.06 0-1.93.78-1.93 1.75v3.14c0 .97.86 1.75 1.93 1.75h3.45c1.06 0 1.93-.78 1.93-1.75v-3.14c0-.97-.86-1.75-1.93-1.75zM4.99 9.17h-3.2C.8 9.17 0 9.95 0 10.92v3.13c0 .97.8 1.75 1.79 1.75h3.2c.99 0 1.79-.78 1.79-1.75v-3.13c0-.97-.8-1.75-1.79-1.75zM14.17 18.26h-3.2c-.99 0-1.79.78-1.79 1.75v3.14c0 .97.8 1.75 1.79 1.75h3.2c.99 0 1.79-.78 1.79-1.75v-3.14c0-.97-.8-1.75-1.79-1.75zM4.99 0h-3.2C.8 0 0 .78 0 1.75v3.14c0 .97.8 1.75 1.79 1.75h3.2c.99 0 1.79-.78 1.79-1.75V1.75C6.78.78 5.98 0 4.99 0zM14.42 9.26h-3.2c-.99 0-1.79.78-1.79 1.75v3.13c0 .97.8 1.75 1.79 1.75h3.2c.99 0 1.79-.78 1.79-1.75v-3.13c0-.97-.8-1.75-1.79-1.75zM23.4 18.26h-3.2c-.99 0-1.79.78-1.79 1.75v3.14c0 .97.8 1.75 1.79 1.75h3.2c.99 0 1.79-.78 1.79-1.75v-3.14c0-.97-.8-1.75-1.79-1.75zM14.03.11h-3.2c-.99 0-1.79.78-1.79 1.75V5c0 .97.8 1.75 1.79 1.75h3.2c.99 0 1.79-.78 1.79-1.75V1.87c0-.97-.8-1.75-1.79-1.75zM23.17 9.45h-3.2c-.99 0-1.79.78-1.79 1.75v3.13c0 .97.8 1.75 1.79 1.75h3.2c.99 0 1.79-.78 1.79-1.75V11.2c0-.97-.8-1.75-1.79-1.75z"/>
    </g>
  </g>
</svg>
